<svg width="25" height="34" viewBox="0 0 25 34" fill="none" xmlns="http://www.w3.org/2000/svg">
<path d="M21.2381 0H4.09524C2.20096 0 0.666672 1.26933 0.666672 2.83333V24.1102C0.666672 29.5729 6.0581 34 12.6667 34C19.2752 34 24.6667 29.5729 24.6667 24.1102V2.83333C24.6667 1.26933 23.1307 0 21.2381 0ZM12.6667 4.25C13.6147 4.25 14.381 4.88467 14.381 5.66667C14.381 6.45008 13.6147 7.08333 12.6667 7.08333C11.7187 7.08333 10.9524 6.45008 10.9524 5.66667C10.9524 4.88467 11.7187 4.25 12.6667 4.25ZM12.6667 29.75C8.87981 29.75 5.80953 27.2128 5.80953 24.0833C5.80953 20.9539 8.87981 18.4167 12.6667 18.4167C16.4535 18.4167 19.5238 20.9539 19.5238 24.0833C19.5238 27.2128 16.4535 29.75 12.6667 29.75ZM16.0952 24.0833C16.0952 25.6459 14.5575 26.9167 12.6667 26.9167C10.7758 26.9167 9.2381 25.6459 9.2381 24.0833C9.2381 22.5208 10.7758 21.25 12.6667 21.25C14.5575 21.25 16.0952 22.5208 16.0952 24.0833Z" fill="#FDFCFC" fill-opacity="0.94"/>
</svg>
