<svg width="24" height="20" viewBox="0 0 24 20" fill="none" xmlns="http://www.w3.org/2000/svg">
<path fill-rule="evenodd" clip-rule="evenodd" d="M21.502 17.525C23.026 16.42 24 14.787 24 12.971C24 9.645 20.763 6.948 16.771 6.948C12.779 6.948 9.542 9.645 9.542 12.971C9.542 16.298 12.779 18.995 16.771 18.995C17.596 18.995 18.392 18.878 19.131 18.665L19.343 18.633C19.482 18.633 19.608 18.676 19.727 18.744L21.31 19.658L21.449 19.703C21.582 19.703 21.69 19.595 21.69 19.462L21.651 19.286L21.325 18.071L21.3 17.917C21.3 17.755 21.38 17.612 21.502 17.525ZM8.675 0.296997C3.884 0.296997 0 3.533 0 7.526C0 9.704 1.168 11.665 2.997 12.99C3.144 13.094 3.24 13.266 3.24 13.461L3.21 13.645L2.819 15.103L2.772 15.314C2.772 15.474 2.902 15.604 3.061 15.604L3.229 15.55L5.128 14.453C5.27 14.371 5.421 14.32 5.588 14.32L5.843 14.358C6.729 14.613 7.685 14.755 8.675 14.755L9.151 14.743C8.963 14.179 8.86 13.585 8.86 12.972C8.86 9.331 12.402 6.379 16.771 6.379L17.242 6.391C16.589 2.938 13.002 0.296997 8.675 0.296997ZM14.361 12.008C13.829 12.008 13.398 11.576 13.398 11.044C13.398 10.511 13.829 10.08 14.361 10.08C14.894 10.08 15.325 10.511 15.325 11.044C15.325 11.576 14.894 12.008 14.361 12.008ZM19.181 12.008C18.648 12.008 18.217 11.576 18.217 11.044C18.217 10.511 18.648 10.08 19.181 10.08C19.713 10.08 20.144 10.511 20.144 11.044C20.144 11.576 19.713 12.008 19.181 12.008ZM5.783 6.369C5.144 6.369 4.627 5.851 4.627 5.213C4.627 4.574 5.144 4.056 5.783 4.056C6.422 4.056 6.94 4.574 6.94 5.213C6.94 5.851 6.422 6.369 5.783 6.369ZM11.566 6.369C10.927 6.369 10.41 5.851 10.41 5.213C10.41 4.574 10.927 4.056 11.566 4.056C12.205 4.056 12.723 4.574 12.723 5.213C12.723 5.851 12.205 6.369 11.566 6.369Z" fill="#ECE9E9" fill-opacity="0.93"/>
</svg>
