<svg width="30" height="30" viewBox="0 0 30 30" fill="none" xmlns="http://www.w3.org/2000/svg">
<path d="M28.3333 22.5V20C28.3333 17.9288 26.0934 16.25 23.3334 16.25C20.5734 16.25 18.3334 17.9288 18.3334 20V22.5H16.6667V30H30V22.5H28.3333ZM20.0001 22.5V20C20.0001 18.6213 21.495 17.5 23.3334 17.5C25.1717 17.5 26.6667 18.6213 26.6667 20V22.5H20.0001ZM13.3334 29.1425C13.3334 29.42 13.1218 29.6725 12.7901 29.7938L12.4001 29.9325C12.2668 29.9775 12.1184 30 11.9668 30C11.4251 30 10.8384 29.7212 10.8118 29.2375C10.7918 28.9262 11.0268 28.6375 11.4068 28.505L11.7818 28.375C12.1184 28.255 12.5134 28.275 12.8284 28.425C13.1434 28.5738 13.3334 28.8338 13.3334 29.1138V29.1425ZM12.7784 22.5463C11.1901 23.1863 8.78844 24.0238 4.84846 24.8913C4.3568 25 3.86013 24.8213 3.65347 24.535C3.29514 24.0788 3.6068 23.4913 4.29013 23.34C8.02345 22.515 10.1951 21.7563 11.7401 21.135C12.0751 21.0013 12.4801 21.0063 12.8084 21.1538C13.1334 21.3013 13.3334 21.565 13.3334 21.85C13.3334 22.1413 13.1201 22.4088 12.7784 22.5463ZM11.8401 18.8513C9.25177 20.1188 6.19346 21.095 2.88681 21.7188C2.35348 21.82 1.80681 21.6 1.62681 21.2125C1.52848 20.9963 1.55515 20.7588 1.70181 20.5588C1.84848 20.3588 2.09848 20.2113 2.39681 20.155C9.14011 18.8788 15.1101 15.9725 17.6584 11.4575C18.8667 9.32 16.5617 7.78875 14.1817 7.78875C12.7484 7.78875 11.2851 8.34375 10.5451 9.65625C9.21011 12.0188 5.85512 13.8913 1.35181 14.8475C0.683485 14.9913 0.0118217 14.6213 0.000155055 14.1025C-0.00817824 13.7313 0.320153 13.4013 0.800151 13.2988C4.64846 12.48 7.47845 10.945 8.55678 9.035C9.07177 8.12125 9.89844 7.375 10.9434 6.8775C11.8984 6.42375 13.0184 6.18375 14.1817 6.18375C16.2417 6.18375 18.1901 6.9325 19.2667 8.1375C20.2951 9.29 20.4317 10.69 19.6484 12.0788C18.8667 13.46 17.7767 14.7525 16.4084 15.9175C15.1234 17.01 13.5868 17.9963 11.8401 18.8513ZM13.3334 25.49C13.3334 25.775 13.1168 26.0375 12.7768 26.165C11.6668 26.58 10.1034 27.1213 7.75178 27.7263C7.00845 27.9175 6.25679 27.3675 6.43512 26.7738C6.52012 26.4988 6.78679 26.2763 7.14512 26.1838C9.51011 25.5713 10.7268 25.1325 11.7668 24.7388C12.1018 24.6113 12.4984 24.6237 12.8184 24.7712C13.1401 24.9175 13.3334 25.1788 13.3334 25.46V25.49ZM1.63181 5.19375C2.05848 4.46125 2.49514 4.03 3.2068 3.4325C6.02846 1.1025 10.0184 0 14.1284 0C20.3084 0 26.335 2.47375 28.22 6.3775C29.5667 9.17 29.0333 11.4275 28.645 13.0738L28.4867 13.7825C28.435 14.0388 28.225 14.26 27.92 14.3813C27.615 14.5025 27.2533 14.505 26.9433 14.3912C26.52 14.2362 26.2817 13.8925 26.3517 13.5438L26.52 12.7963C26.8867 11.2438 27.3417 9.31125 26.19 6.92C24.8884 4.22125 20.9384 2.175 16.1284 1.70375C11.0651 1.20875 6.50345 2.56875 3.92347 5.33875L3.2768 6.05375C2.97181 6.3975 2.38681 6.4875 1.92848 6.25375C1.46181 6.01625 1.35348 5.67125 1.63181 5.19375ZM1.72681 18.2825C1.12348 18.3913 0.526819 18.095 0.42682 17.6438C0.333487 17.2225 0.693485 16.8175 1.25182 16.7175C7.12179 15.6562 11.5768 13.2475 13.3401 10.1262C13.5718 9.7175 14.2034 9.52625 14.7534 9.6975C15.3034 9.86875 15.5601 10.34 15.3301 10.7488C13.0334 14.815 7.51012 17.24 1.72681 18.2825ZM0.99015 9.86625C3.33014 9.2925 4.02347 8.41 4.84346 7.36C5.36679 6.6925 5.95846 5.93625 6.98845 5.22375C9.33177 3.60625 12.5051 2.825 15.6951 3.08C18.7401 3.32375 21.435 4.47875 23.0917 6.25C25.4 8.7175 24.82 11.1613 24.3567 13.125C24.2717 13.49 23.8467 13.7538 23.355 13.75H23.2584C22.9517 13.7525 22.66 13.6538 22.46 13.48C22.26 13.3063 22.1767 13.0738 22.23 12.8463C22.6667 11 23.1167 9.09 21.3184 7.16625C20.0201 5.7775 17.8834 4.87 15.4617 4.675C12.8934 4.47 10.3418 5.09875 8.45844 6.4C7.66178 6.95 7.19845 7.54125 6.70845 8.1675C5.76013 9.38 4.78513 10.6263 1.65015 11.3925C0.908484 11.5738 0.166821 11.1163 0.265154 10.5413C0.32682 10.1925 0.620152 9.9575 0.99015 9.86625Z" fill="#EDEDED" fill-opacity="0.95"/>
</svg>
