<svg width="24" height="35" viewBox="0 0 24 35" fill="none" xmlns="http://www.w3.org/2000/svg">
<path d="M22.5 35H1.5V32.0833H22.5V35ZM9.5625 6.25188C11.619 9.66146 11.6715 15.9498 10.0785 18.5704C13.9215 18.1154 17.751 14.4317 18.5895 11.9598C20.154 14.0583 21 16.5448 21 19.2019C21 21.4681 19.707 24.9783 16.1715 26.7298C15.843 24.7013 14.484 22.4919 12.2145 21.2377C10.0545 22.4685 8.469 25.1577 8.0385 26.9806C6.1875 26.1815 3 23.7431 3 20.4167C3 15.6319 7.0635 13.7302 9.5625 6.25188ZM7.5 0C8.313 9.17583 0 12.3346 0 20.4167C0 25.9058 5.235 29.7792 10.5 30.6323C10.242 28.506 10.9455 26.4556 12.249 25.2481C13.524 26.3652 14.109 28.8487 13.5 30.6265C19.302 29.5327 24 25.0002 24 19.2033C24 13.9154 21.2505 8.93229 16.0635 5.83333C16.9695 9.205 15.798 11.5296 14.157 12.9733C14.2515 8.71208 12.4215 3.00708 7.5 0Z" fill="#F6F2F2" fill-opacity="0.93"/>
</svg>
