<svg width="45" height="46" viewBox="0 0 45 46" fill="none" xmlns="http://www.w3.org/2000/svg">
<path d="M0 31.1926L3.6225 13.8L10.2338 15.8493L6.5325 33.2419L0 31.1926ZM34.5281 33.2672C34.7625 33.9273 34.8787 34.6426 34.8187 35.3602C34.6706 37.2669 33.51 38.6906 32.0869 39.0448C31.6106 40.2707 30.7125 41.0849 29.6775 41.3494C29.22 42.527 28.3238 43.3964 27.2475 43.6724C26.6381 45.2088 25.4288 46 24.1088 46C23.1413 46 22.2262 45.5791 21.5662 44.7626C19.8263 45.6918 18 44.6522 17.3813 42.7777C16.2638 42.6213 15.3056 41.7381 14.8838 40.4846C13.7606 40.3213 12.795 39.4312 12.3713 38.1777C10.1438 37.8603 8.90625 34.8657 10.125 32.4392C9.68812 32.3058 9.19875 32.2 8.71688 32.0896L9.435 28.7224C10.4175 28.9524 11.3288 29.2261 12.1594 29.5458C13.8713 28.0393 16.1925 28.8673 16.9388 31.1075C18.0788 31.2662 19.0312 32.1747 19.44 33.4075C20.5613 33.5639 21.5231 34.4448 21.9431 35.7029C23.3269 35.8915 24.4931 37.2048 24.66 39.0011L24.6638 39.5186L25.5075 40.4432C25.98 41.1125 26.7825 41.1884 27.3075 40.687C27.8438 40.1741 27.915 39.2518 27.4481 38.5963L24.7163 35.6546C24.4219 35.3349 24.8138 34.7806 25.1156 35.1003L27.9112 38.1087C28.3931 38.7849 29.2088 38.8723 29.7281 38.3709C30.2625 37.8649 30.3206 36.9196 29.8556 36.2641L26.3006 32.5197C25.9969 32.2092 26.3906 31.6457 26.6906 31.9631L30.3356 35.8018C30.8006 36.4504 31.6069 36.5723 32.1488 36.064C32.6794 35.558 32.8031 34.6702 32.145 33.7755C29.82 31.2179 27.1369 28.244 24.3769 25.0447C23.7113 26.1671 20.2969 28.4993 18.2288 28.4993C16.1606 28.4993 14.8931 26.9468 14.5538 25.4104C14.2594 24.0718 14.6494 22.7907 15.5494 22.1467C16.5525 21.4268 17.5275 20.3941 18.4781 19.228C16.9987 17.8802 16.2225 18.3126 14.6025 19.2579C13.6594 19.8053 12.54 20.4562 11.1263 20.746L11.9475 16.905C14.4356 15.7826 16.7269 13.2066 20.3944 16.7141L21.315 15.4445C22.0556 14.4164 23.0231 13.8 24.1331 13.8C24.9506 13.8 25.8394 14.1703 26.7731 14.7591C29.6194 16.583 31.0725 17.6479 33.2288 17.7353L33.9675 21.2037H33.9525C30.5831 21.2796 28.935 20.0353 25.485 17.8227C24.5231 17.2178 23.8744 17.0913 23.4225 17.7215C21.5775 20.2975 19.6144 23.0322 17.4375 24.7664C18.5119 25.8198 21.2231 23.713 22.2975 22.6504C22.7663 22.1881 23.4938 21.574 24.4125 21.574C25.4494 21.574 26.2031 22.3353 26.745 22.9977C28.02 24.5617 31.5638 28.4924 33.1331 30.2243C33.9469 29.6677 34.7606 29.2238 35.5913 28.8328L36.3094 32.2069C35.7113 32.5151 35.1225 32.8647 34.5281 33.2672ZM13.8337 35.2797L14.9756 33.5616C15.4444 32.8716 15.3788 31.901 14.8256 31.3904C14.2706 30.8775 13.4437 31.027 12.9769 31.7124L11.8331 33.4351C11.3625 34.1205 11.4319 35.0934 11.9831 35.6017C12.5344 36.11 13.365 35.9674 13.8337 35.2797ZM16.3238 37.5935L17.4806 35.857C17.9456 35.1739 17.88 34.1964 17.3269 33.6881C16.7756 33.1798 15.9506 33.3224 15.4819 34.0147L14.3269 35.7489C13.8563 36.4389 13.9331 37.3865 14.4881 37.9017C15.045 38.4123 15.855 38.2858 16.3238 37.5935ZM18.8419 39.8751L19.9819 38.157C20.4525 37.4693 20.385 36.4987 19.8319 35.9858C19.2769 35.4752 18.4537 35.6247 17.9831 36.3124L16.8413 38.0259C16.3706 38.7159 16.4419 39.6911 16.995 40.1994C17.5444 40.7077 18.3713 40.5674 18.8419 39.8751ZM22.3388 38.2858C21.7875 37.7706 20.9606 37.9201 20.4881 38.6055L19.3406 40.3328C18.8737 41.0205 18.9412 41.9934 19.4944 42.5017C20.0475 43.01 20.8725 42.8697 21.3431 42.1751L22.4869 40.4501C22.9613 39.767 22.8938 38.7941 22.3388 38.2858ZM25.0144 40.894L24.5644 40.4064C24.4462 40.9561 24.24 41.4736 23.9419 41.9014L23.2706 42.9157C23.52 43.1595 23.8106 43.3205 24.1106 43.3205C24.39 43.3205 24.6638 43.2147 24.8888 43.0031C25.4213 42.4902 25.4831 41.5495 25.0144 40.894ZM34.7663 15.8493L38.4675 33.2419L45 31.1926L41.3775 13.8L34.7663 15.8493ZM19.8431 0L17.9944 0.4002L18.9713 7.1944L20.8163 6.7942L19.8431 0ZM27.0056 0.4002L25.1588 0L24.1819 6.7942L26.0288 7.1944L27.0056 0.4002ZM33.75 3.2246L32.1244 2.0746L29.3119 8.05L30.9375 9.2L33.75 3.2246ZM12.8756 2.0746L11.25 3.2246L14.0625 9.2L15.6881 8.05L12.8756 2.0746Z" fill="#F2F3F6" fill-opacity="0.95"/>
</svg>
