<svg width="557" height="402" viewBox="0 0 557 402" fill="none" xmlns="http://www.w3.org/2000/svg">
<path d="M2.72 372V352.008H9.248V372H2.72ZM15.0131 372V354.728L14.6731 352.008H20.9291L30.5171 361.732L31.8431 363.228H32.2171V352.008H38.7451V372H33.0671L23.2071 362.174L21.8811 360.576H21.5411V372H15.0131ZM50.2427 372V356.598H42.1507V351.974H65.0327V356.598H56.8387V372H50.2427ZM68.429 372V352.008H90.257V356.632H75.059V359.454H86.313V364.18H75.059V367.342H89.713L91.753 371.626C91.753 371.717 91.447 371.807 90.835 371.898C90.223 371.966 89.169 372 87.673 372H68.429ZM101.72 372C99.2942 372 97.5375 371.467 96.4495 370.402C95.3615 369.337 94.8175 367.614 94.8175 365.234V359.012C94.8175 356.564 95.4182 354.785 96.6195 353.674C97.8208 352.541 99.5208 351.974 101.72 351.974H113.076C114.64 351.974 115.83 352.065 116.646 352.246C117.484 352.405 117.904 352.575 117.904 352.756L116.85 357.006C116.283 356.938 115.172 356.87 113.518 356.802C111.886 356.711 109.823 356.666 107.33 356.666H104.168C103.102 356.666 102.377 356.87 101.992 357.278C101.629 357.663 101.448 358.264 101.448 359.08V364.894C101.448 365.665 101.606 366.265 101.924 366.696C102.264 367.104 103.012 367.308 104.168 367.308H106.922C107.964 367.308 108.905 367.308 109.744 367.308C110.582 367.285 111.319 367.263 111.954 367.24V364.656L110.594 364.69L106.14 365.03V360.338H118.448V370.572L118.788 371.286C118.788 371.467 118.312 371.637 117.36 371.796C116.408 371.932 114.798 372 112.532 372H101.72ZM145.612 372.34C144.706 372.34 143.697 372.204 142.586 371.932C141.476 371.637 140.376 370.935 139.288 369.824L137.86 368.396C137.18 367.716 136.523 367.161 135.888 366.73C135.276 366.299 134.574 365.982 133.78 365.778C132.987 365.551 131.99 365.438 130.788 365.438H130.516V372H123.886V354.728L123.546 351.974H139.288C140.739 351.974 141.906 352.155 142.79 352.518C143.697 352.858 144.388 353.323 144.864 353.912C145.363 354.479 145.703 355.125 145.884 355.85C146.066 356.575 146.156 357.312 146.156 358.06V358.706C146.156 360.066 145.805 361.29 145.102 362.378C144.422 363.443 143.334 364.203 141.838 364.656C142.405 364.996 142.938 365.347 143.436 365.71C143.958 366.05 144.547 366.413 145.204 366.798C145.952 367.229 146.644 367.546 147.278 367.75C147.936 367.931 148.48 368.045 148.91 368.09C149.341 368.135 149.59 368.158 149.658 368.158L148.638 372C148.366 372.068 147.947 372.136 147.38 372.204C146.836 372.295 146.247 372.34 145.612 372.34ZM134.46 360.916C135.027 360.916 135.571 360.905 136.092 360.882C136.636 360.859 137.124 360.825 137.554 360.78C138.325 360.689 138.846 360.451 139.118 360.066C139.413 359.658 139.56 359.171 139.56 358.604V358.23C139.56 357.731 139.413 357.346 139.118 357.074C138.846 356.802 138.336 356.666 137.588 356.666H130.516V360.78C131.083 360.803 131.706 360.837 132.386 360.882C133.066 360.905 133.758 360.916 134.46 360.916ZM150.284 372L160.246 352.008H169.086L179.014 372H171.704L170.038 368.362H159.294L157.424 372H150.284ZM161.164 363.67H168.134L164.836 356.428H164.496L161.164 363.67ZM182.357 372V354.728L182.017 352.008H197.793C200.536 352.008 202.587 352.552 203.947 353.64C205.33 354.728 206.021 356.428 206.021 358.74V365.234C206.021 367.591 205.341 369.314 203.981 370.402C202.621 371.467 200.558 372 197.793 372H182.357ZM188.987 367.308H196.773C198.518 367.308 199.402 366.503 199.425 364.894V359.012C199.425 358.355 199.232 357.799 198.847 357.346C198.462 356.87 197.77 356.632 196.773 356.632H188.987V367.308ZM217.333 372C214.93 372 213.173 371.467 212.063 370.402C210.975 369.314 210.431 367.591 210.431 365.234V358.74C210.431 356.428 210.975 354.728 212.063 353.64C213.151 352.552 214.907 352.008 217.333 352.008H227.261C229.641 352.008 231.375 352.552 232.463 353.64C233.573 354.728 234.129 356.428 234.129 358.74V365.234C234.129 367.591 233.573 369.314 232.463 370.402C231.352 371.467 229.618 372 227.261 372H217.333ZM219.679 367.376H224.949C226.717 367.376 227.601 366.571 227.601 364.962V359.012C227.601 357.425 226.717 356.632 224.949 356.632H219.679C218.772 356.632 218.092 356.813 217.639 357.176C217.185 357.539 216.959 358.151 216.959 359.012V364.962C216.959 365.801 217.185 366.413 217.639 366.798C218.092 367.183 218.772 367.376 219.679 367.376ZM261.292 372.34C260.385 372.34 259.377 372.204 258.266 371.932C257.155 371.637 256.056 370.935 254.968 369.824L253.54 368.396C252.86 367.716 252.203 367.161 251.568 366.73C250.956 366.299 250.253 365.982 249.46 365.778C248.667 365.551 247.669 365.438 246.468 365.438H246.196V372H239.566V354.728L239.226 351.974H254.968C256.419 351.974 257.586 352.155 258.47 352.518C259.377 352.858 260.068 353.323 260.544 353.912C261.043 354.479 261.383 355.125 261.564 355.85C261.745 356.575 261.836 357.312 261.836 358.06V358.706C261.836 360.066 261.485 361.29 260.782 362.378C260.102 363.443 259.014 364.203 257.518 364.656C258.085 364.996 258.617 365.347 259.116 365.71C259.637 366.05 260.227 366.413 260.884 366.798C261.632 367.229 262.323 367.546 262.958 367.75C263.615 367.931 264.159 368.045 264.59 368.09C265.021 368.135 265.27 368.158 265.338 368.158L264.318 372C264.046 372.068 263.627 372.136 263.06 372.204C262.516 372.295 261.927 372.34 261.292 372.34ZM250.14 360.916C250.707 360.916 251.251 360.905 251.772 360.882C252.316 360.859 252.803 360.825 253.234 360.78C254.005 360.689 254.526 360.451 254.798 360.066C255.093 359.658 255.24 359.171 255.24 358.604V358.23C255.24 357.731 255.093 357.346 254.798 357.074C254.526 356.802 254.016 356.666 253.268 356.666H246.196V360.78C246.763 360.803 247.386 360.837 248.066 360.882C248.746 360.905 249.437 360.916 250.14 360.916ZM276.222 372V354.728L275.882 352.008H291.658C294.401 352.008 296.452 352.552 297.812 353.64C299.195 354.728 299.886 356.428 299.886 358.74V365.234C299.886 367.591 299.206 369.314 297.846 370.402C296.486 371.467 294.423 372 291.658 372H276.222ZM282.852 367.308H290.638C292.383 367.308 293.267 366.503 293.29 364.894V359.012C293.29 358.355 293.097 357.799 292.712 357.346C292.327 356.87 291.635 356.632 290.638 356.632H282.852V367.308ZM304.636 372V352.008H326.464V356.632H311.266V359.454H322.52V364.18H311.266V367.342H325.92L327.96 371.626C327.96 371.717 327.654 371.807 327.042 371.898C326.43 371.966 325.376 372 323.88 372H304.636ZM342.677 372C341.136 372 340.003 371.932 339.277 371.796C338.552 371.66 338.189 371.501 338.189 371.32L340.229 366.934C340.751 367.025 341.827 367.115 343.459 367.206C345.091 367.274 347.211 367.308 349.817 367.308H352.503C353.297 367.308 353.829 367.195 354.101 366.968C354.373 366.741 354.509 366.413 354.509 365.982V365.642C354.509 365.098 354.373 364.724 354.101 364.52C353.829 364.316 353.297 364.214 352.503 364.214H344.717C342.428 364.214 340.762 363.795 339.719 362.956C338.677 362.095 338.155 360.701 338.155 358.774V357.55C338.155 356.553 338.337 355.635 338.699 354.796C339.085 353.957 339.731 353.289 340.637 352.79C341.544 352.269 342.791 352.008 344.377 352.008H355.665C357.048 352.008 358.193 352.087 359.099 352.246C360.029 352.405 360.493 352.575 360.493 352.756L359.473 356.972C358.839 356.904 357.637 356.836 355.869 356.768C354.124 356.677 351.903 356.632 349.205 356.632L346.757 356.598C346.055 356.598 345.556 356.7 345.261 356.904C344.967 357.085 344.808 357.437 344.785 357.958V358.196C344.785 358.717 344.944 359.08 345.261 359.284C345.579 359.488 346.089 359.59 346.791 359.59H354.271C355.722 359.59 356.957 359.737 357.977 360.032C358.997 360.327 359.779 360.871 360.323 361.664C360.867 362.435 361.139 363.579 361.139 365.098V366.322C361.139 368.022 360.697 369.393 359.813 370.436C358.952 371.479 357.445 372 355.291 372H342.677ZM365.896 372V352.008H372.424V372H365.896ZM381.691 372C380.15 372 379.016 371.932 378.291 371.796C377.566 371.66 377.203 371.501 377.203 371.32L379.243 366.934C379.764 367.025 380.841 367.115 382.473 367.206C384.105 367.274 386.224 367.308 388.831 367.308H391.517C392.31 367.308 392.843 367.195 393.115 366.968C393.387 366.741 393.523 366.413 393.523 365.982V365.642C393.523 365.098 393.387 364.724 393.115 364.52C392.843 364.316 392.31 364.214 391.517 364.214H383.731C381.442 364.214 379.776 363.795 378.733 362.956C377.69 362.095 377.169 360.701 377.169 358.774V357.55C377.169 356.553 377.35 355.635 377.713 354.796C378.098 353.957 378.744 353.289 379.651 352.79C380.558 352.269 381.804 352.008 383.391 352.008H394.679C396.062 352.008 397.206 352.087 398.113 352.246C399.042 352.405 399.507 352.575 399.507 352.756L398.487 356.972C397.852 356.904 396.651 356.836 394.883 356.768C393.138 356.677 390.916 356.632 388.219 356.632L385.771 356.598C385.068 356.598 384.57 356.7 384.275 356.904C383.98 357.085 383.822 357.437 383.799 357.958V358.196C383.799 358.717 383.958 359.08 384.275 359.284C384.592 359.488 385.102 359.59 385.805 359.59H393.285C394.736 359.59 395.971 359.737 396.991 360.032C398.011 360.327 398.793 360.871 399.337 361.664C399.881 362.435 400.153 363.579 400.153 365.098V366.322C400.153 368.022 399.711 369.393 398.827 370.436C397.966 371.479 396.458 372 394.305 372H381.691ZM410.961 372V356.598H402.869V351.974H425.751V356.598H417.557V372H410.961ZM429.148 372V352.008H450.976V356.632H435.778V359.454H447.032V364.18H435.778V367.342H450.432L452.472 371.626C452.472 371.717 452.166 371.807 451.554 371.898C450.942 371.966 449.888 372 448.392 372H429.148ZM456.216 372V354.728L455.876 352.008H464.104L470.088 363.908L476.208 352.008H483.994V372H477.5V360.542H477.126L475.698 364.214L473.216 369.96H467.028L464.444 364.214L463.05 360.542H462.71V372H456.216ZM486.997 372L496.959 352.008H505.799L515.727 372H508.417L506.751 368.362H496.007L494.137 372H486.997ZM497.877 363.67H504.847L501.549 356.428H501.209L497.877 363.67ZM522.572 372C521.03 372 519.897 371.932 519.172 371.796C518.446 371.66 518.084 371.501 518.084 371.32L520.124 366.934C520.645 367.025 521.722 367.115 523.354 367.206C524.986 367.274 527.105 367.308 529.712 367.308H532.398C533.191 367.308 533.724 367.195 533.996 366.968C534.268 366.741 534.404 366.413 534.404 365.982V365.642C534.404 365.098 534.268 364.724 533.996 364.52C533.724 364.316 533.191 364.214 532.398 364.214H524.612C522.322 364.214 520.656 363.795 519.614 362.956C518.571 362.095 518.05 360.701 518.05 358.774V357.55C518.05 356.553 518.231 355.635 518.594 354.796C518.979 353.957 519.625 353.289 520.532 352.79C521.438 352.269 522.685 352.008 524.272 352.008H535.56C536.942 352.008 538.087 352.087 538.994 352.246C539.923 352.405 540.388 352.575 540.388 352.756L539.368 356.972C538.733 356.904 537.532 356.836 535.764 356.768C534.018 356.677 531.797 356.632 529.1 356.632L526.652 356.598C525.949 356.598 525.45 356.7 525.156 356.904C524.861 357.085 524.702 357.437 524.68 357.958V358.196C524.68 358.717 524.838 359.08 525.156 359.284C525.473 359.488 525.983 359.59 526.686 359.59H534.166C535.616 359.59 536.852 359.737 537.872 360.032C538.892 360.327 539.674 360.871 540.218 361.664C540.762 362.435 541.034 363.579 541.034 365.098V366.322C541.034 368.022 540.592 369.393 539.708 370.436C538.846 371.479 537.339 372 535.186 372H522.572Z" fill="#263238"/>
<g filter="url(#filter0_i_484_2)">
<path d="M146.976 0.25H419.91C420.46 0.25 420.817 0.820871 420.576 1.30859C409.118 24.5468 387.235 41.348 384.636 43.2907C384.513 43.3828 384.367 43.4295 384.206 43.4295H180.347C179.877 43.4295 179.446 43.6935 179.233 44.1126L126.29 148.164C126.128 148.483 126.11 148.856 126.241 149.188L159.735 234.418C159.819 234.632 159.801 234.872 159.685 235.07L133.331 280.382C133.02 280.916 132.233 280.867 131.992 280.297L76.4049 148.993C76.3215 148.797 76.3262 148.573 76.4176 148.38L146.298 0.679238C146.423 0.417136 146.686 0.25 146.976 0.25Z" fill="url(#paint0_linear_484_2)" stroke="black" stroke-width="0.5"/>
<path d="M223.274 140.59L277.017 45.3635L276.799 45.2406L277.017 45.3635C277.306 44.8521 278.043 44.8557 278.327 45.3699L330.845 140.596C331.121 141.096 330.759 141.709 330.188 141.709H302.354C302.069 141.709 301.808 141.547 301.682 141.291L278.801 94.9447C278.343 94.0159 277.018 94.0159 276.559 94.9447L253.679 141.291C253.553 141.547 253.292 141.709 253.007 141.709H223.927C223.353 141.709 222.992 141.09 223.274 140.59ZM354.325 247.924L323.196 184.87C322.95 184.372 323.313 183.788 323.869 183.788H354.223C354.496 183.788 354.747 183.937 354.879 184.176L413.768 290.955C414.044 291.454 413.683 292.067 413.112 292.067H309.845C309.431 292.067 309.095 291.731 309.095 291.317V250.477C309.095 250.063 309.431 249.727 309.845 249.727H353.204C354.131 249.727 354.735 248.755 354.325 247.924ZM247.983 292.067H142.249C141.678 292.067 141.317 291.454 141.592 290.955L200.481 184.176C200.613 183.937 200.865 183.788 201.138 183.788H231.492C232.048 183.788 232.411 184.372 232.165 184.87L201.036 247.924C200.626 248.755 201.23 249.727 202.156 249.727H247.983C248.397 249.727 248.733 250.063 248.733 250.477V291.317C248.733 291.731 248.397 292.067 247.983 292.067Z" fill="url(#paint1_linear_484_2)" stroke="black" stroke-width="0.5"/>
<path d="M187.424 149.768H368.08C368.575 149.768 368.931 150.243 368.791 150.716C363.88 167.321 355.082 175.445 353.469 176.827C353.347 176.931 353.189 176.988 353.02 176.988H300.941C300.251 176.988 299.691 177.547 299.691 178.238V292.996C299.691 293.411 299.355 293.746 298.941 293.746H280.352H258.201C257.787 293.746 257.451 293.411 257.451 292.996V178.238C257.451 177.547 256.891 176.988 256.201 176.988H205.556C203.734 176.988 201.783 175.752 199.822 173.722C197.871 171.702 195.956 168.943 194.203 165.999C190.699 160.114 187.871 153.532 186.736 150.764C186.54 150.287 186.892 149.768 187.424 149.768Z" fill="url(#paint2_linear_484_2)" stroke="black" stroke-width="0.5"/>
</g>
<path d="M223.191 171.474C221.479 171.474 220.239 171.098 219.471 170.346C218.703 169.594 218.319 168.378 218.319 166.698V162.306C218.319 160.578 218.743 159.322 219.591 158.538C220.439 157.738 221.639 157.338 223.191 157.338H231.207C232.311 157.338 233.151 157.402 233.727 157.53C234.319 157.642 234.615 157.762 234.615 157.89L233.871 160.89C233.471 160.842 232.687 160.794 231.519 160.746C230.367 160.682 228.911 160.65 227.151 160.65H224.919C224.167 160.65 223.655 160.794 223.383 161.082C223.127 161.354 222.999 161.778 222.999 162.354V166.458C222.999 167.002 223.111 167.426 223.335 167.73C223.575 168.018 224.103 168.162 224.919 168.162H226.863C227.599 168.162 228.263 168.162 228.855 168.162C229.447 168.146 229.967 168.13 230.415 168.114V166.29L229.455 166.314L226.311 166.554V163.242H234.999V170.466L235.239 170.97C235.239 171.098 234.903 171.218 234.231 171.33C233.559 171.426 232.423 171.474 230.823 171.474H223.191ZM236.87 171.474L243.902 157.362H250.142L257.15 171.474H251.99L250.814 168.906H243.23L241.91 171.474H236.87ZM244.55 165.594H249.47L247.142 160.482H246.902L244.55 165.594ZM259.27 171.474L259.51 169.554V157.362H264.118V168.186H272.614L274.054 171.21C274.054 171.274 273.838 171.338 273.406 171.402C272.974 171.45 272.23 171.474 271.174 171.474H259.27ZM276.409 171.474V160.602H270.697V157.338H286.849V160.602H281.065V171.474H276.409ZM289.247 171.474V157.362H304.655V160.626H293.927V162.618H301.871V165.954H293.927V168.186H304.271L305.711 171.21C305.711 171.274 305.495 171.338 305.063 171.402C304.631 171.45 303.887 171.474 302.831 171.474H289.247ZM312.746 171.474C311.034 171.474 309.794 171.098 309.026 170.346C308.258 169.594 307.874 168.378 307.874 166.698V162.306C307.874 160.578 308.298 159.322 309.146 158.538C309.994 157.738 311.194 157.338 312.746 157.338H319.754C320.858 157.338 321.698 157.402 322.274 157.53C322.866 157.642 323.162 157.762 323.162 157.89L322.418 160.89C322.018 160.842 321.234 160.794 320.066 160.746C318.914 160.682 317.458 160.65 315.698 160.65H314.474C313.722 160.65 313.21 160.794 312.938 161.082C312.682 161.354 312.554 161.778 312.554 162.354V166.458C312.554 167.002 312.666 167.426 312.89 167.73C313.13 168.018 313.658 168.162 314.474 168.162H315.458C317.746 168.162 319.49 168.138 320.69 168.09C321.89 168.026 322.61 167.962 322.85 167.898L324.314 170.49C324.314 170.57 324.146 170.69 323.81 170.85C323.49 171.01 322.938 171.154 322.154 171.282C321.386 171.41 320.314 171.474 318.938 171.474H312.746ZM326.723 171.474V157.362H331.355V162.738H338.819V157.362H343.427V171.474H338.819V166.002H331.355V171.474H326.723Z" fill="white" fill-opacity="0.9"/>
<defs>
<filter id="filter0_i_484_2" x="76.0955" y="0" width="347.808" height="299.997" filterUnits="userSpaceOnUse" color-interpolation-filters="sRGB">
<feFlood flood-opacity="0" result="BackgroundImageFix"/>
<feBlend mode="normal" in="SourceGraphic" in2="BackgroundImageFix" result="shape"/>
<feColorMatrix in="SourceAlpha" type="matrix" values="0 0 0 0 0 0 0 0 0 0 0 0 0 0 0 0 0 0 127 0" result="hardAlpha"/>
<feOffset dx="3" dy="6"/>
<feGaussianBlur stdDeviation="6.5"/>
<feComposite in2="hardAlpha" operator="arithmetic" k2="-1" k3="1"/>
<feColorMatrix type="matrix" values="0 0 0 0 0 0 0 0 0 0 0 0 0 0 0 0 0 0 0.25 0"/>
<feBlend mode="normal" in2="shape" result="effect1_innerShadow_484_2"/>
</filter>
<linearGradient id="paint0_linear_484_2" x1="429" y1="12.48" x2="97.29" y2="305.201" gradientUnits="userSpaceOnUse">
<stop stop-color="#008A91"/>
<stop offset="1" stop-color="#222831"/>
</linearGradient>
<linearGradient id="paint1_linear_484_2" x1="420.772" y1="54.674" x2="133.833" y2="282.84" gradientUnits="userSpaceOnUse">
<stop stop-color="#008A91"/>
<stop offset="1" stop-color="#222831"/>
</linearGradient>
<linearGradient id="paint2_linear_484_2" x1="373.385" y1="155.907" x2="202.92" y2="311.925" gradientUnits="userSpaceOnUse">
<stop stop-color="#008A91"/>
<stop offset="1" stop-color="#222831"/>
</linearGradient>
</defs>
</svg>
