<svg width="459" height="367" viewBox="0 0 459 367" fill="none" xmlns="http://www.w3.org/2000/svg">
<path d="M158.761 137.937L210.649 44.5747C210.936 44.0576 211.681 44.0612 211.963 44.5811L262.668 137.944C262.939 138.444 262.578 139.052 262.009 139.052H235.182C234.895 139.052 234.633 138.888 234.508 138.63L212.439 93.2348C211.983 92.2968 210.646 92.2968 210.19 93.2348L188.121 138.63C187.996 138.888 187.734 139.052 187.447 139.052H159.417C158.845 139.052 158.483 138.437 158.761 137.937ZM285.375 243.262L255.316 181.431C255.073 180.933 255.436 180.353 255.99 180.353H285.254C285.529 180.353 285.782 180.503 285.913 180.745L342.798 285.488C343.07 285.988 342.708 286.596 342.139 286.596H242.429C242.015 286.596 241.679 286.26 241.679 285.846V245.808C241.679 245.394 242.015 245.058 242.429 245.058H284.251C285.174 245.058 285.779 244.092 285.375 243.262ZM182.583 286.596H80.4894C79.9207 286.596 79.5589 285.988 79.8303 285.488L136.715 180.745C136.847 180.503 137.1 180.353 137.375 180.353H166.638C167.192 180.353 167.555 180.933 167.313 181.431L137.254 243.262C136.85 244.092 137.455 245.058 138.378 245.058H182.583C182.998 245.058 183.333 245.394 183.333 245.808V285.846C183.333 286.26 182.998 286.596 182.583 286.596Z" fill="#008A91" stroke="black" stroke-width="0.5"/>
<path d="M16.8402 145.601L16.6136 145.496L16.8402 145.601L84.3585 0.683259C84.4817 0.418974 84.7468 0.25 85.0384 0.25H348.71C349.259 0.25 349.615 0.81734 349.378 1.30473C338.323 24.0559 317.245 40.5144 314.674 42.4677L314.825 42.6667L314.674 42.4677C314.549 42.5625 314.398 42.612 314.237 42.612H117.285C116.811 42.612 116.379 42.879 116.167 43.302L65.0163 145.388C64.8584 145.703 64.8409 146.07 64.9681 146.399L97.3326 230.029C97.4142 230.24 97.3963 230.476 97.284 230.672L71.8568 275.068C71.5476 275.608 70.7532 275.558 70.5138 274.984L16.8278 146.207C16.7466 146.012 16.7512 145.792 16.8402 145.601Z" fill="#008A91" stroke="black" stroke-width="0.5"/>
<path d="M124.139 146.97H298.63C299.124 146.97 299.479 147.443 299.342 147.914C294.605 164.162 286.135 172.127 284.553 173.507C284.431 173.613 284.271 173.671 284.101 173.671H233.825C233.135 173.671 232.575 174.23 232.575 174.921V287.494C232.575 287.908 232.239 288.244 231.825 288.244H213.896H192.524C192.11 288.244 191.774 287.908 191.774 287.494V174.921C191.774 174.23 191.215 173.671 190.524 173.671H141.62C139.866 173.671 137.985 172.464 136.093 170.476C134.21 168.498 132.361 165.797 130.669 162.912C127.286 157.146 124.553 150.693 123.45 147.962C123.257 147.485 123.608 146.97 124.139 146.97Z" fill="#008A91" stroke="black" stroke-width="0.5"/>
<path d="M158.881 168.676C157.169 168.676 155.929 168.3 155.161 167.548C154.393 166.796 154.009 165.58 154.009 163.9V159.508C154.009 157.78 154.433 156.524 155.281 155.74C156.129 154.94 157.329 154.54 158.881 154.54H166.897C168.001 154.54 168.841 154.604 169.417 154.732C170.009 154.844 170.305 154.964 170.305 155.092L169.561 158.092C169.161 158.044 168.377 157.996 167.209 157.948C166.057 157.884 164.601 157.852 162.841 157.852H160.609C159.857 157.852 159.345 157.996 159.073 158.284C158.817 158.556 158.689 158.98 158.689 159.556V163.66C158.689 164.204 158.801 164.628 159.025 164.932C159.265 165.22 159.793 165.364 160.609 165.364H162.553C163.289 165.364 163.953 165.364 164.545 165.364C165.137 165.348 165.657 165.332 166.105 165.316V163.492L165.145 163.516L162.001 163.756V160.444H170.689V167.668L170.929 168.172C170.929 168.3 170.593 168.42 169.921 168.532C169.249 168.628 168.113 168.676 166.513 168.676H158.881ZM172.56 168.676L179.592 154.564H185.832L192.84 168.676H187.68L186.504 166.108H178.92L177.6 168.676H172.56ZM180.24 162.796H185.16L182.832 157.684H182.592L180.24 162.796ZM194.96 168.676L195.2 166.756V154.564H199.808V165.388H208.304L209.744 168.412C209.744 168.476 209.528 168.54 209.096 168.604C208.664 168.652 207.92 168.676 206.864 168.676H194.96ZM212.099 168.676V157.804H206.387V154.54H222.539V157.804H216.755V168.676H212.099ZM224.937 168.676V154.564H240.345V157.828H229.617V159.82H237.561V163.156H229.617V165.388H239.961L241.401 168.412C241.401 168.476 241.185 168.54 240.753 168.604C240.321 168.652 239.577 168.676 238.521 168.676H224.937ZM248.436 168.676C246.724 168.676 245.484 168.3 244.716 167.548C243.948 166.796 243.564 165.58 243.564 163.9V159.508C243.564 157.78 243.988 156.524 244.836 155.74C245.684 154.94 246.884 154.54 248.436 154.54H255.444C256.548 154.54 257.388 154.604 257.964 154.732C258.556 154.844 258.852 154.964 258.852 155.092L258.108 158.092C257.708 158.044 256.924 157.996 255.756 157.948C254.604 157.884 253.148 157.852 251.388 157.852H250.164C249.412 157.852 248.9 157.996 248.628 158.284C248.372 158.556 248.244 158.98 248.244 159.556V163.66C248.244 164.204 248.356 164.628 248.58 164.932C248.82 165.22 249.348 165.364 250.164 165.364H251.148C253.436 165.364 255.18 165.34 256.38 165.292C257.58 165.228 258.3 165.164 258.54 165.1L260.004 167.692C260.004 167.772 259.836 167.892 259.5 168.052C259.18 168.212 258.628 168.356 257.844 168.484C257.076 168.612 256.004 168.676 254.628 168.676H248.436ZM262.413 168.676V154.564H267.045V159.94H274.509V154.564H279.117V168.676H274.509V163.204H267.045V168.676H262.413Z" fill="white" fill-opacity="0.9"/>
</svg>
