<svg width="24" height="24" viewBox="0 0 24 24" fill="none" xmlns="http://www.w3.org/2000/svg">
<path fill-rule="evenodd" clip-rule="evenodd" d="M3.848 19H3C2.204 19 1.441 18.684 0.879 18.121C0.316 17.559 0 16.796 0 16V13C0 5.825 5.377 0 12 0C18.623 0 24 5.825 24 13V16C24 16.796 23.684 17.559 23.121 18.121C22.559 18.684 21.796 19 21 19H20.152C17.462 23.633 13.248 24 12 24C10.752 24 6.538 23.633 3.848 19ZM20 13.124C19.399 13.36 18.731 12.944 18.731 12.327C18.731 12.023 18.709 11.717 18.678 11.412C16.917 11.158 15.06 9.486 14.979 7.689C13.664 9.694 10.454 11.859 7.935 11.859C9.021 11.16 9.774 9.086 9.838 8.351C9.257 9.443 6.94 11.487 5.287 11.838L5.269 12.327C5.269 12.946 4.6 13.359 4 13.124V16.895C4.287 17.151 4.632 17.359 5.041 17.489C5.266 17.561 5.453 17.713 5.562 17.913C7.768 21.959 10.988 22 12 22C12.929 22 15.719 21.965 17.877 18.831C16.806 19.264 15.612 19.435 14.118 19.484C13.748 20.084 12.938 20.5 12 20.5C10.712 20.5 9.667 19.716 9.667 18.75C9.667 17.784 10.712 17 12 17C12.933 17 13.738 17.411 14.112 18.005C16.012 17.979 18.448 17.671 20 15.36V13.124ZM9 12.5C9.686 12.5 10.243 13.172 10.243 14C10.243 14.828 9.686 15.5 9 15.5C8.314 15.5 7.757 14.828 7.757 14C7.757 13.172 8.314 12.5 9 12.5ZM15 12.5C15.686 12.5 16.243 13.172 16.243 14C16.243 14.828 15.686 15.5 15 15.5C14.314 15.5 13.757 14.828 13.757 14C13.757 13.172 14.314 12.5 15 12.5ZM20.478 11H21.835C20.979 5.882 16.898 2 12 2C7.102 2 3.021 5.882 2.165 11H3.522C4.042 6.977 6.933 3.278 12 3.278C17.067 3.278 19.958 6.977 20.478 11Z" fill="#F2F2F2" fill-opacity="0.96"/>
</svg>
