<svg width="24" height="20" viewBox="0 0 24 20" fill="none" xmlns="http://www.w3.org/2000/svg">
<path fill-rule="evenodd" clip-rule="evenodd" d="M21.19 5H24V20H3V15H0.189999V0H21.19V5ZM23 6H4V19H23V6ZM13.5 7C16.536 7 19 9.464 19 12.5C19 15.536 16.536 18 13.5 18C10.464 18 8 15.536 8 12.5C8 9.464 10.464 7 13.5 7ZM13.5 8C15.984 8 18 10.016 18 12.5C18 14.984 15.984 17 13.5 17C11.016 17 9 14.984 9 12.5C9 10.016 11.016 8 13.5 8ZM14 16H13V15.196C12.233 15.036 11.522 14.507 11.522 13.492H12.544C12.544 14.083 12.87 14.378 13.522 14.378C14.339 14.378 14.849 13.463 13.355 12.939C12.587 12.669 11.675 12.263 11.675 11.246C11.675 10.45 12.248 9.949 13 9.798V9H14V9.806C14.704 9.967 15.313 10.479 15.313 11.404H14.295C14.295 10.616 13.568 10.628 13.48 10.628C12.93 10.628 12.693 10.919 12.693 11.25C12.693 11.497 12.827 11.747 13.65 12.018C14.706 12.362 15.313 12.863 15.313 13.764C15.313 14.415 14.937 15.052 14 15.212V16ZM20.19 5V1H1.19V14H3V5H20.19Z" fill="#F6F6F6" fill-opacity="0.94"/>
</svg>
