<svg width="24" height="24" viewBox="0 0 24 24" fill="none" xmlns="http://www.w3.org/2000/svg">
<path d="M16 12L24 18.041L20.552 18.593L22.712 22.961L20.682 24L18.512 19.551L16 21.824V12ZM20 11C20 11.484 19.951 11.957 19.877 12.421L21.639 13.752C21.866 12.871 22 11.952 22 11C22 7.258 20.127 3.957 17.272 1.97L16.071 3.571C18.441 5.194 20 7.918 20 11ZM13 0H9V10H13V0ZM14 19.475C13.06 19.809 12.053 20 11 20C6.037 20 2 15.962 2 11C2 7.895 3.581 5.152 5.979 3.534L4.747 1.956C1.881 3.941 0 7.25 0 11C0 17.075 4.926 22 11 22C12.041 22 13.045 21.846 14 21.575V19.475Z" fill="#F5F0F0" fill-opacity="0.95"/>
</svg>
